# xmcd
#
# Track frame offsets:
#	150
#	20615
#	41456
#	63612
#	78587
#	95771
#	116420
#	147301
#	165610
#	172511
#	179412
#	195826
#	216967
#	235322
#	251764
#	270566
#
# Disc length: 3900 seconds
#
# Revision: 1
# Processed by: cddbd v1.5.2PL0 Copyright (c) Steve Scherf et al.
# Submitted via: audiograbber 1.83.01
#
DISCID=db0f3a10
DTITLE=Various Artist - New Orleans Festival, Innsbruck 2005
DYEAR=2005
DGENRE=Blues
TTITLE0=Chucky C. and Clearly Blue - The Blues is allright
TTITLE1=Chucky C. and Clearly Blue - Too many Cooks
TTITLE2=STB Dixie Train - Bourbon Street Parade
TTITLE3=The Untouchables - Minnie the Moocher
TTITLE4=George Nussbaumer - Ain't doing too bad
TTITLE5=Manisch Boys - Bye bye Blues
TTITLE6=Oscar Klein and Pick-A-Blues - When the saints
TTITLE7=Dixielanders Hall - 12th Street Rag
TTITLE8=Andy Mayerl's "Mirror In" - Daytime Love
TTITLE9=Andy Mayerl's "Mirror In" - Mirror In
TTITLE10=Manisch Boys - Blue water
TTITLE11=The Markus Linder Blues Band - I bin hoaﬂ
TTITLE12=Oscar Klein and Pick-A-Blues - C-Jam-Blues
TTITLE13=Dixielanders Hall - On the sunny side of Love
TTITLE14=The Untouchables - Standing on the edge of love
TTITLE15=George Nussbaumer - Louisianna 1927
EXTD=
EXTT0=
EXTT1=
EXTT2=
EXTT3=
EXTT4=
EXTT5=
EXTT6=
EXTT7=
EXTT8=
EXTT9=
EXTT10=
EXTT11=
EXTT12=
EXTT13=
EXTT14=
EXTT15=
PLAYORDER=
